# xmcd
#
# Track frame offsets:
#	150
#	4220
#	21395
#	22835
#	40348
#	46424
#	68212
#	70313
#	88914
#	97465
#	117903
#	130242
#	148096
#	148847
#	166923
#	169099
#	185624
#	193690
#	210603
#	211204
#	224572
#	228395
#	249283
#	264722
#
# Disc length: 3552 seconds
#
# Revision: 1
# Processed by: cddbd v1.5.2PL0 Copyright (c) Steve Scherf et al.
# Submitted via: audiograbber 1.82.01
#
DISCID=750dde18
DTITLE=Schwarzwald Huzzlahzz - Countree Boyz
DYEAR=2008
DGENRE=Hip-Hop
TTITLE0=Badnalied
TTITLE1=Badnaland
TTITLE2=Kimberlude 1
TTITLE3=Countree Boyz
TTITLE4=Rinderlude
TTITLE5=Bauern Baunz
TTITLE6=Lil Flip n' Big Willi
TTITLE7=Weinberga Honigschnegge
TTITLE8=Newzfläsh 
TTITLE9=Sommer auf der Alm 
TTITLE10=Kuhstall Funk 
TTITLE11=In den Tag
TTITLE12=Kinderlude
TTITLE13=Was sollema Dringe?
TTITLE14=Kimberlude 2
TTITLE15=Daz eine Lied dez Stuhlz
TTITLE16=Dirty South Barbapapa
TTITLE17=Wir sind dirty
TTITLE18=Kimberlude 3
TTITLE19=4 ma Hühnaz 
TTITLE20=Alpenmilf Muzik
TTITLE21=Countree Boyz (Massenschlagerremix)
TTITLE22=Countree Boyz (Bumble Beef Verschön)
TTITLE23=Outro
EXTD=
EXTT0=
EXTT1=
EXTT2=
EXTT3=
EXTT4=
EXTT5=
EXTT6=
EXTT7=
EXTT8=
EXTT9=
EXTT10=
EXTT11=
EXTT12=
EXTT13=
EXTT14=
EXTT15=
EXTT16=
EXTT17=
EXTT18=
EXTT19=
EXTT20=
EXTT21=
EXTT22=
EXTT23=
PLAYORDER=
